<svg width="256" height="256" viewBox="0 0 256 256" fill="none" xmlns="http://www.w3.org/2000/svg">
<path d="M120.343 33.851C121.665 32.9346 123.698 31.9164 124.816 31.6109C125.935 31.4073 127.46 31.1018 128.172 31C128.782 31 130.917 31.5091 132.747 32.3237C134.476 33.0364 137.017 34.7674 138.339 36.0911C139.763 37.6184 140.881 40.2658 141.186 43.1168C141.593 46.5787 141.186 48.5134 139.661 51.0589C138.441 52.7899 136.001 55.0299 134.272 55.9463C131.934 57.0664 129.494 57.4737 126.342 57.0664C122.783 56.6591 121.054 55.7427 118.513 52.8917C115.869 50.0407 115.157 48.3097 115.157 45.1532C115.157 42.9132 115.767 39.8585 116.581 38.2293C117.293 36.702 119.021 34.7674 120.343 33.851Z" fill="white"/>
<path d="M75.7074 44.9496C77.5375 43.7277 80.8928 42.0986 83.1296 41.3858C85.3665 40.6731 89.2302 40.3676 91.772 40.6731C94.3139 40.9785 98.2792 42.3022 100.719 43.7277C103.058 45.0514 106.108 47.6988 107.43 49.5316C108.752 51.2625 110.277 54.419 110.989 56.3536C111.599 58.2882 112.107 61.5465 112.107 63.4812C112.107 65.4158 110.989 69.3868 109.769 72.136C108.447 74.987 106.007 78.3471 104.38 79.569C102.753 80.8927 99.8044 82.6237 97.8725 83.4382C95.9407 84.2528 92.0771 84.8637 89.2302 84.8637C86.4849 84.8637 82.3162 83.9473 80.0794 82.9291C77.8425 81.9109 74.7923 79.9763 73.3688 78.6526C71.9454 77.3289 69.9119 74.5797 68.8951 72.6451C67.5733 70.3032 66.9633 66.9431 66.8616 62.972C66.8616 58.0846 67.4717 55.8445 69.7085 52.0771C71.2337 49.3279 73.9789 46.1715 75.7074 44.9496Z" fill="white"/>
<path d="M149.422 47.9024C151.557 45.866 155.319 43.4223 157.861 42.6077C160.403 41.7931 164.47 41.284 167.012 41.4876C169.554 41.6913 173.417 42.8113 175.654 43.9314C177.891 45.0514 180.738 47.0878 181.856 48.4115C183.076 49.6334 184.906 52.3826 185.923 54.3172C187.042 56.4555 187.753 60.0192 187.753 63.4812C187.753 67.1467 187.042 70.5069 185.618 73.1542C184.5 75.3943 181.755 78.6526 179.619 80.4854C177.484 82.3182 173.621 84.3546 171.079 84.9656C168.435 85.6783 164.571 85.882 161.928 85.4747C159.386 85.0674 155.421 83.6419 153.082 82.3182C150.337 80.689 147.693 78.0417 145.965 74.987C144.338 72.0342 143.016 68.0631 142.813 65.0085C142.61 61.852 143.016 58.3901 144.033 55.8445C144.846 53.6044 147.287 50.0407 149.422 47.9024Z" fill="white"/>
<path d="M42.4596 76.6162C43.883 74.8852 46.0182 73.0524 47.34 72.6451C48.5601 72.136 51.2036 71.7287 53.1355 71.7287C55.0673 71.6269 58.2192 72.5433 60.0494 73.6633C61.7779 74.7834 64.0147 77.2271 64.9298 79.0599C66.0482 81.3 66.4549 83.6419 65.9465 86.3911C65.6415 88.6311 64.3197 91.584 63.0996 92.9077C61.7779 94.2313 59.1343 95.9623 57.2025 96.7769C54.9656 97.6933 52.5254 97.9987 50.5936 97.4896C48.9668 97.0824 46.4249 96.0641 45.1031 95.1477C43.7814 94.2313 42.0529 92.2967 41.3412 90.7694C40.5278 89.1403 39.9177 86.0856 39.9177 83.8455C39.9177 80.9945 40.7311 78.8562 42.4596 76.6162Z" fill="white"/>
<path d="M191.922 76.6162C193.346 74.8852 195.481 73.0524 196.802 72.6451C198.023 72.136 200.564 71.7287 202.395 71.7287C204.123 71.6269 206.97 72.3397 208.698 73.1542C210.427 73.9688 212.664 76.2089 213.782 78.0417C214.901 79.7726 215.816 82.5218 215.816 84.151C215.816 85.6783 215.002 88.6311 214.087 90.6676C212.765 93.3149 211.037 94.9441 207.987 96.2678C205.038 97.4896 202.496 97.8969 200.361 97.4896C198.531 97.0824 195.887 96.0641 194.566 95.1477C193.244 94.2313 191.515 92.2967 190.804 90.7694C189.99 89.1403 189.38 86.0856 189.38 83.8455C189.38 80.9945 190.194 78.8562 191.922 76.6162Z" fill="white"/>
<path d="M114.039 80.7909C115.056 78.8563 117.699 76.2089 119.834 74.8852C122.986 73.0524 124.816 72.6451 128.883 73.0524C131.73 73.256 135.086 74.3761 136.407 75.3943C137.729 76.4125 139.661 78.3471 140.779 79.7726C141.898 81.1982 142.915 84.3546 143.22 86.9002C143.626 90.2603 143.22 92.5004 141.796 95.0459C140.779 96.9805 138.339 99.6279 136.407 100.952C133.967 102.581 131.527 103.192 127.867 103.192C124.613 103.192 121.563 102.479 119.529 101.155C117.699 100.035 115.259 97.5915 114.141 95.8605C113.022 93.9259 112.107 90.6676 112.107 88.4275C112.107 86.1874 112.92 82.7255 114.039 80.7909Z" fill="white"/>
<path d="M79.876 99.2206C81.0961 97.286 83.9431 94.8423 86.1799 93.8241C88.4168 92.8058 91.3653 91.9913 92.7888 91.9913C94.2122 91.9913 97.3642 93.0095 99.9061 94.2313C103.465 96.0641 104.99 97.6933 106.922 101.664C108.65 105.228 109.158 107.672 108.65 109.81C108.345 111.541 107.125 114.392 106.007 116.225C104.786 118.261 102.143 120.298 99.1943 121.621C95.4323 123.251 93.3988 123.556 90.2469 123.047C87.5017 122.538 84.8581 121.01 81.9095 118.058C77.9442 114.188 77.6392 113.476 77.6392 108.283C77.6392 104.21 78.2492 101.766 79.876 99.2206Z" fill="white"/>
<path d="M150.032 99.017C151.354 97.1842 153.997 95.1477 155.929 94.435C157.861 93.7222 160.809 93.1113 162.436 93.1113C164.165 93.0095 167.52 94.0277 169.96 95.3514C172.4 96.5732 175.247 98.9151 176.264 100.646C177.383 102.581 178.094 105.635 178.094 108.792C178.094 112.356 177.484 115.003 175.857 117.345C174.637 119.28 171.79 121.723 169.554 122.741C167.317 123.76 164.368 124.574 162.945 124.574C161.521 124.574 158.573 123.76 156.336 122.741C154.099 121.723 151.252 119.585 150.032 117.854C148.913 116.225 147.592 113.577 147.185 111.847C146.778 110.116 146.677 107.265 147.083 105.534C147.388 103.701 148.812 100.748 150.032 99.017Z" fill="white"/>
<path d="M191.21 109.81C193.244 108.385 196.599 106.755 198.531 106.246C200.463 105.737 204.021 105.534 206.462 105.839C208.8 106.043 212.46 107.163 214.596 108.181C216.629 109.301 219.578 111.439 221.103 113.068C222.628 114.596 224.56 117.65 225.373 119.789C226.288 121.825 227 125.287 227 127.425C227 129.462 226.492 132.822 225.882 134.756C225.17 136.691 223.441 139.848 222.018 141.782C220.594 143.717 217.137 146.364 214.291 147.688C211.24 149.011 207.275 150.03 204.428 150.03C201.683 150.03 197.819 149.317 195.786 148.502C193.651 147.586 190.194 145.142 188.058 143.106C185.618 140.662 183.686 137.506 182.67 134.247C181.755 131.091 181.45 127.629 181.856 125.083C182.161 122.843 183.585 119.076 184.906 116.734C186.228 114.29 189.075 111.236 191.21 109.81Z" fill="white"/>
<path d="M34.6306 114.188C36.6641 111.948 40.2227 109.199 42.4596 108.181C44.6964 107.163 48.8651 106.246 51.9154 106.246C55.3723 106.246 58.8293 107.061 61.9812 108.588C64.5231 109.81 67.8784 112.254 69.3018 113.985C70.7253 115.818 72.5554 118.974 73.1655 121.112C73.8772 123.352 74.4873 126.407 74.4873 128.138C74.4873 129.869 73.8772 132.924 73.1655 135.164C72.5554 137.302 70.7253 140.458 69.3018 142.291C67.8784 144.022 64.7264 146.466 62.1846 147.79C59.0326 149.419 55.9824 150.132 51.6103 150.132C47.1366 150.132 44.2897 149.419 40.9345 147.79C37.9859 146.16 35.139 143.615 33.0038 140.357C31.1736 137.506 29.4452 133.433 29.1401 131.193C28.8351 128.953 29.0385 125.185 29.6485 122.843C30.2586 120.4 32.4954 116.632 34.6306 114.188Z" fill="white"/>
<path d="M117.801 118.159C118.919 117.243 121.258 116.021 123.19 115.614C125.121 115.105 128.273 115.105 130.307 115.614C132.34 116.021 134.781 117.243 135.899 118.159C136.916 119.178 138.441 121.621 139.254 123.556C140.169 125.796 140.474 128.24 139.966 130.174C139.559 131.905 138.543 134.349 137.628 135.673C136.712 136.997 134.781 138.727 133.255 139.44C131.629 140.255 128.782 140.866 126.85 140.866C124.918 140.866 122.071 140.255 120.546 139.44C118.919 138.727 116.987 136.997 116.072 135.673C115.157 134.349 114.141 131.905 113.734 130.174C113.225 128.24 113.531 125.796 114.446 123.556C115.259 121.621 116.784 119.178 117.801 118.159Z" fill="white"/>
<path d="M81.8079 137.098C83.028 135.775 85.5699 134.349 87.1967 133.738C88.9251 133.229 92.0771 133.025 94.3139 133.229C96.5508 133.433 99.4994 134.553 100.923 135.571C102.346 136.589 104.481 139.033 105.803 140.968C107.227 143.106 108.04 145.957 108.04 148.299C108.04 150.335 107.43 153.288 106.617 154.917C105.905 156.444 103.973 158.888 102.346 160.314C100.618 161.739 97.4658 163.267 94.8223 163.674C91.0603 164.285 89.4335 163.979 85.7732 162.045C83.2313 160.721 80.3844 158.583 79.266 157.157C78.2492 155.732 77.1308 152.575 76.8258 150.03C76.4191 146.975 76.7241 144.429 77.8425 142.393C78.6559 140.662 80.4861 138.32 81.8079 137.098Z" fill="white"/>
<path d="M152.777 137.2C154.201 136.182 156.437 135.062 157.861 134.655C159.284 134.247 161.318 133.84 162.436 133.84C163.555 133.738 166.503 134.756 169.045 135.978C172.604 137.811 174.129 139.44 176.061 143.411C177.789 146.975 178.298 149.419 177.789 151.557C177.484 153.288 176.264 156.139 175.146 157.972C173.926 159.906 171.282 162.045 168.333 163.368C164.876 164.896 162.436 165.405 159.894 164.896C157.963 164.59 154.811 163.267 153.082 161.943C151.252 160.721 149.015 158.175 148.202 156.444C147.388 154.612 146.677 151.15 146.677 148.808C146.677 146.364 147.49 143.208 148.507 141.68C149.422 140.153 151.354 138.117 152.777 137.2Z" fill="white"/>
<path d="M116.682 157.157C117.801 156.343 120.241 155.121 122.275 154.408C124.206 153.695 127.257 153.39 128.883 153.797C130.612 154.103 132.849 154.714 133.967 155.121C135.086 155.63 137.424 157.361 139.051 159.194C141.593 161.841 142.203 163.368 142.406 168.154C142.61 172.634 142.203 174.671 140.678 177.318C139.458 179.049 136.611 181.493 134.272 182.613C131.832 183.733 128.68 184.649 127.155 184.649C125.528 184.649 122.478 183.733 120.241 182.613C118.004 181.493 115.259 179.049 114.141 177.318C113.022 175.485 111.802 172.634 111.497 170.903C111.09 168.969 111.599 166.219 112.819 163.267C113.937 160.721 115.666 157.972 116.682 157.157Z" fill="white"/>
<path d="M188.872 163.267C189.685 161.536 191.922 159.295 193.752 158.074C196.294 156.546 198.124 156.139 202.09 156.444C206.36 156.852 207.682 157.565 210.529 160.619C213.07 163.47 213.782 165.201 213.782 168.358C213.782 170.598 213.07 173.754 212.257 175.485C211.342 177.318 209.003 179.354 206.462 180.576C204.021 181.696 201.378 182.613 200.564 182.613C199.751 182.613 197.209 181.696 194.972 180.678C192.329 179.354 190.295 177.42 189.177 175.078C188.16 173.041 187.347 170.292 187.347 168.867C187.347 167.441 188.058 164.997 188.872 163.267Z" fill="white"/>
<path d="M40.8328 163.877C41.9512 162.35 44.3914 160.314 46.2216 159.601C48.0517 158.786 51.2036 158.379 53.1355 158.685C55.0673 158.888 57.8125 160.008 59.236 161.026C60.6594 162.045 62.6929 164.692 63.7097 166.932C65.3365 170.19 65.4382 171.514 64.5231 174.467C63.913 176.402 62.0829 179.253 60.5578 180.882C58.8293 182.613 56.0841 183.936 53.6439 184.344C50.6953 184.751 48.4584 184.344 45.6115 183.02C42.5613 181.594 41.1378 179.965 39.7144 176.809C38.6976 174.365 38.0876 171.209 38.3926 169.681C38.5959 168.052 39.7144 165.507 40.8328 163.877Z" fill="white"/>
<path d="M75.3007 175.587C77.0291 174.06 80.0794 172.43 81.9095 171.718C83.638 171.107 87.2983 170.496 90.0436 170.496C92.6871 170.394 96.3474 171.005 98.1776 171.718C99.906 172.532 102.956 174.467 104.888 176.096C106.718 177.725 109.158 180.78 110.175 182.918C111.395 185.26 112.107 188.824 112.107 192.591C112.107 196.562 111.395 199.821 109.769 202.977C108.548 205.421 105.702 208.781 103.465 210.308C101.228 211.937 97.1608 213.668 94.3139 214.279C90.6536 215.094 88.0101 215.094 84.6548 214.279C82.0112 213.668 78.1476 211.53 75.6057 209.29C73.0638 207.254 70.2169 203.69 69.2001 201.45C68.2851 199.21 67.37 195.137 67.37 192.286C67.37 189.027 68.1834 185.566 69.7085 182.714C70.9286 180.169 73.4705 177.012 75.3007 175.587Z" fill="white"/>
<path d="M149.524 175.587C151.252 174.06 154.302 172.43 156.132 171.718C157.861 171.107 161.216 170.496 163.453 170.496C165.69 170.394 169.147 170.801 171.079 171.412C173.01 171.921 176.467 173.856 178.603 175.689C180.738 177.522 183.381 180.78 184.398 182.918C185.72 185.362 186.33 188.824 186.33 193.1C186.33 197.58 185.618 200.737 183.991 203.893C182.771 206.439 180.128 209.494 178.196 210.715C176.264 212.039 172.4 213.566 169.554 214.279C165.69 215.196 163.25 215.196 159.386 214.381C156.132 213.566 152.675 211.836 149.829 209.392C147.287 207.254 144.44 203.69 143.423 201.45C142.508 199.21 141.593 195.137 141.593 192.286C141.593 189.027 142.406 185.566 143.931 182.714C145.151 180.169 147.693 177.012 149.524 175.587Z" fill="white"/>
<path d="M115.971 205.828C117.293 202.875 118.919 200.839 121.36 199.719C123.291 198.701 126.037 197.886 127.663 197.886C129.188 197.886 132.137 198.701 134.171 199.719C136.916 200.941 138.441 202.672 139.864 206.032C141.491 209.901 141.695 211.225 140.678 214.483C140.068 216.519 138.339 219.269 136.814 220.592C135.187 221.916 132.645 223.341 130.917 223.749C129.188 224.156 126.342 224.054 124.308 223.545C122.376 222.934 119.529 221.203 118.106 219.574C116.682 218.047 115.259 215.196 114.852 213.465C114.344 211.123 114.751 208.679 115.971 205.828Z" fill="white"/>
</svg>
